/* XPM */
static const char * usbprog_icon_xpm[] = {
"32 32 101 2",
"  	c None",
". 	c #000099",
"+ 	c #000093",
"@ 	c #FFFFFF",
"# 	c #0B0B9C",
"$ 	c #F2F2FA",
"% 	c #000094",
"& 	c #8282CE",
"* 	c #F6F6FB",
"= 	c #F6F6FC",
"- 	c #000095",
"; 	c #C5C5E8",
"> 	c #2424A4",
", 	c #14149F",
"' 	c #1414A1",
") 	c #5555BB",
"! 	c #FAFAFD",
"~ 	c #000092",
"{ 	c #C4C4E7",
"] 	c #00008C",
"^ 	c #000096",
"/ 	c #DEDEF2",
"( 	c #000091",
"_ 	c #C3C3E7",
": 	c #000090",
"< 	c #DCDCF2",
"[ 	c #DDDDF2",
"} 	c #0E0E9E",
"| 	c #E9E9F7",
"1 	c #1E1EA5",
"2 	c #4545B4",
"3 	c #3434AE",
"4 	c #2929A9",
"5 	c #4646B5",
"6 	c #2F2FAC",
"7 	c #000098",
"8 	c #1313A0",
"9 	c #EDEDF8",
"0 	c #CECEEC",
"a 	c #E4E4F4",
"b 	c #08089B",
"c 	c #FDFDFF",
"d 	c #C9C9E9",
"e 	c #1212A0",
"f 	c #ECECF8",
"g 	c #8A8AD0",
"h 	c #F1F1F9",
"i 	c #DBDBF0",
"j 	c #03039A",
"k 	c #AAAADD",
"l 	c #FBFBFD",
"m 	c #C1C1E6",
"n 	c #00008D",
"o 	c #9B9BD7",
"p 	c #DADAF0",
"q 	c #05059B",
"r 	c #CACAE9",
"s 	c #0C0C9D",
"t 	c #EBEBF8",
"u 	c #00008F",
"v 	c #9696D5",
"w 	c #000097",
"x 	c #C5C5E7",
"y 	c #3636AF",
"z 	c #F0F0F9",
"A 	c #0C0C9A",
"B 	c #9898D6",
"C 	c #D8D8EF",
"D 	c #E5E5F5",
"E 	c #D7D7EF",
"F 	c #BDBDE4",
"G 	c #8989CF",
"H 	c #5F5FBF",
"I 	c #15159A",
"J 	c #7F7FCC",
"K 	c #D5D5EE",
"L 	c #1D1DA2",
"M 	c #3838B0",
"N 	c #F5F5FC",
"O 	c #E8E8F6",
"P 	c #06069B",
"Q 	c #7070C5",
"R 	c #7A7ACA",
"S 	c #EEEEF8",
"T 	c #BCBCE4",
"U 	c #050599",
"V 	c #0F0F9F",
"W 	c #07079C",
"X 	c #1111A0",
"Y 	c #1919A3",
"Z 	c #0A0A9D",
"` 	c #D5D5EF",
" .	c #F5F5FB",
"..	c #E1E1F4",
"+.	c #C4C4E8",
"@.	c #8080CD",
"#.	c #2A2AA9",
"$.	c #0C0C9B",
"%.	c #ADADDE",
"&.	c #EEEEF9",
"*.	c #6060BF",
". . . . . . . . . . . . . . . . . . . . . . . . . . . . . . . . ",
". . . . . . . . . . . . . . . . . . . . . . . . . . . . . . . . ",
". . . . . + + + + + + + + + + + + + + + + + + + + + + + . . . . ",
". . . . @ @ @ @ @ @ @ @ @ @ @ @ @ @ @ @ @ @ @ @ @ @ @ @ + . . . ",
". . # @ @ @ @ @ @ @ @ @ @ @ @ @ @ @ @ @ @ @ @ @ @ @ @ $ @ % % % ",
"% % & @ @ @ * = = = = = = = = = = = = = = = = = = = @ @ @ @ - - ",
"- - ; @ @ > , ' ' ' ' ' ' ' ' ' ' ' ' ' ' ' ' ' ' ' ) ! @ @ ~ ~ ",
"~ ~ { @ @ ] ^ ^ ^ ^ ^ ^ ^ ^ ^ ^ ^ ^ ^ ^ ^ ^ ^ ^ ^ ^ ^ / @ @ ( . ",
". . _ @ @ : . . . . . . . . . . . . . . . . . . . . . < @ @ ( . ",
". . _ @ @ : . . . . . . . . . . . . . . . . . . . . . [ @ @ ( . ",
". . _ @ @ : . . . . . . . . . . . . . . . . . . . . } | @ @ ~ ~ ",
"~ ~ _ @ @ : . . . . . 1 2 2 3 . . 4 5 5 6 7 . . . . 8 9 @ @ ~ ~ ",
"~ ~ _ @ @ : . . . . . 0 @ @ a . b c c c d - . . . . e f @ @ ~ ~ ",
"~ ~ _ @ @ : . . . . . g h @ i j j k l @ m - . . . . e f @ @ ~ ~ ",
"~ ~ _ @ @ : . . . . . n o @ p q ^ ^ r @ m - . . . . s t @ @ ( . ",
". . _ @ @ : . . . . . u v @ p q w w x @ m - . . . . y z @ @ A w ",
"w w _ @ @ : . . . . . : B @ C j w w { @ m - . . . . [ @ @ @ @ ^ ",
"^ ^ _ @ @ : . . . . . : o @ D . . . E @ F ( . . . . . [ @ @ % % ",
"% % _ @ @ : . . . . . ( G @ @ H I J @ @ K L w . . . . . [ - - - ",
"- - _ @ @ : . . . . . . M @ @ @ N @ @ @ @ O P w . . . . . . . . ",
"- - _ @ @ : : : . : . . . Q 9 @ l G R S S T U . : : : : : : : 7 ",
". . _ @ @ : . . . . : : : : : : : : : : : : : . . . . V V W 7 . ",
"7 7 _ @ @ : . . . . . . . . X : Y : + Z Z 7 7 . . . . `  .@ ( . ",
". . _ @ @ : . . . . . . . . . . . . . . . . . . . . . ..@ @ ( . ",
". . _ @ @ : . . . . . . . . . . . . . . . . . . . . . [ @ @ ( . ",
". . { @ @ ] ^ ^ ^ ^ ^ ^ ^ ^ ^ ^ ^ ^ ^ ^ ^ ^ ^ ^ ^ ^ ^ / @ @ ( ~ ",
". . +.@ @ @ @ @ @ @ @ @ @ @ @ @ @ @ @ @ @ @ @ @ @ @ @ ! @ H ~ - ",
"~ ~ @.@ @ @ * = = = = = = = = = = = = = = = = @ @ @ @ @ @ #.- + ",
"- - $.%.@ @ @ @ @ @ @ @ @ @ @ @ @ @ @ @ @ @ @ @ @ @ @ &.*.+ + . ",
". . . . . + + + + + + + + + + + + + + + + + + + + + + + . . . . ",
". . . . . . . . . . . . . . . . . . . . . . . . . . . . . . . . ",
". . . . . . . . . . . . . . . . . . . . . . . . . . . . . . . . "};
