/* XPM */
static char * IconAbout24_xpm[] = {
"24 24 356 2",
"  	c None",
". 	c #042FCA",
"+ 	c #4C68D3",
"@ 	c #748BD9",
"# 	c #7D92D8",
"$ 	c #879BD8",
"% 	c #889BD7",
"& 	c #7F94D8",
"* 	c #788ED9",
"= 	c #516DD2",
"- 	c #1E43C3",
"; 	c #6D85CE",
"> 	c #7F94D4",
", 	c #8296D5",
"' 	c #8398D6",
") 	c #8499D6",
"! 	c #8599D7",
"~ 	c #8599D6",
"{ 	c #8498D5",
"] 	c #7289CE",
"^ 	c #2146BF",
"/ 	c #002CC4",
"( 	c #133AB7",
"_ 	c #6880CC",
": 	c #738AD1",
"< 	c #778DD3",
"[ 	c #7A8FD4",
"} 	c #7C90D5",
"| 	c #7D92D6",
"1 	c #7E93D6",
"2 	c #7E92D5",
"3 	c #7C91D4",
"4 	c #7A90D2",
"5 	c #6F87CD",
"6 	c #193FB4",
"7 	c #002DBA",
"8 	c #0029BF",
"9 	c #002AAA",
"0 	c #3E5EBE",
"a 	c #6781CF",
"b 	c #6C84D1",
"c 	c #6F86D3",
"d 	c #7289D4",
"e 	c #748BD5",
"f 	c #768CD6",
"g 	c #778DD6",
"h 	c #768DD5",
"i 	c #758BD4",
"j 	c #738AD2",
"k 	c #7188D0",
"l 	c #4765C0",
"m 	c #0730A8",
"n 	c #002AB5",
"o 	c #0830AD",
"p 	c #4A67C5",
"q 	c #5F79CE",
"r 	c #647DD0",
"s 	c #6880D3",
"t 	c #6B83D4",
"u 	c #6E85D6",
"v 	c #8195DC",
"w 	c #869ADD",
"x 	c #7187D7",
"y 	c #7086D5",
"z 	c #6E85D4",
"A 	c #6C83D2",
"B 	c #6982CF",
"C 	c #5571C6",
"D 	c #1137AC",
"E 	c #0831A8",
"F 	c #002AB1",
"G 	c #0730AC",
"H 	c #0F36B2",
"I 	c #3655C0",
"J 	c #5773CE",
"K 	c #5C77D1",
"L 	c #617AD3",
"M 	c #647DD5",
"N 	c #CDD5F1",
"O 	c #FFFFFF",
"P 	c #DEE3F6",
"Q 	c #6A82D6",
"R 	c #6880D5",
"S 	c #667ED3",
"T 	c #627BCF",
"U 	c #415FC2",
"V 	c #1A3EB2",
"W 	c #1138AB",
"X 	c #0830AB",
"Y 	c #002ABB",
"Z 	c #042CAA",
"` 	c #0D35B2",
" .	c #163CB7",
"..	c #2146BE",
"+.	c #4765CB",
"@.	c #5570D0",
"#.	c #5A74D4",
"$.	c #5D77D6",
"%.	c #A4B2E8",
"&.	c #E6EAF8",
"*.	c #E9EDFA",
"=.	c #B4BFEC",
"-.	c #647DD7",
";.	c #627BD6",
">.	c #6079D3",
",.	c #536ECC",
"'.	c #2D4FBE",
").	c #2246B7",
"!.	c #193EB0",
"~.	c #0F36AA",
"{.	c #032CAF",
"].	c #002CC9",
"^.	c #002AA9",
"/.	c #0931AE",
"(.	c #133AB5",
"_.	c #1C41BB",
":.	c #2448C1",
"<.	c #2E4EC5",
"[.	c #4261CE",
"}.	c #516CD4",
"|.	c #5671D8",
"1.	c #5974D9",
"2.	c #5C75DB",
"3.	c #5D77DC",
"4.	c #5E77DB",
"5.	c #5D77D8",
"6.	c #5A74D6",
"7.	c #4D68D0",
"8.	c #3958C6",
"9.	c #3152C1",
"0.	c #284CBB",
"a.	c #2044B4",
"b.	c #163CAD",
"c.	c #0A33A5",
"d.	c #0029C1",
"e.	c #032CAA",
"f.	c #0E35B1",
"g.	c #183DB8",
"h.	c #2145BE",
"i.	c #2A4CC4",
"j.	c #3152C9",
"k.	c #3856CE",
"l.	c #3E5DD2",
"m.	c #4866D7",
"n.	c #617ADE",
"o.	c #657DE0",
"p.	c #677EE1",
"q.	c #657EDF",
"r.	c #556FDA",
"s.	c #4865D5",
"t.	c #4361D0",
"u.	c #3E5CCA",
"v.	c #3857C5",
"w.	c #2F51BF",
"x.	c #2649B7",
"y.	c #1C40B0",
"z.	c #1037A8",
"A.	c #022BB0",
"B.	c #0029B9",
"C.	c #1238B3",
"D.	c #1C40BA",
"E.	c #2548C0",
"F.	c #2D4FC6",
"G.	c #3555CC",
"H.	c #3C5BD2",
"I.	c #4261D6",
"J.	c #4865D9",
"K.	c #F5F7FD",
"L.	c #FEFEFF",
"M.	c #6A81E1",
"N.	c #4C68D8",
"O.	c #4966D4",
"P.	c #4361CE",
"Q.	c #3C5BC8",
"R.	c #3455C1",
"S.	c #2B4DBA",
"T.	c #2144B2",
"U.	c #153BAA",
"V.	c #072EAC",
"W.	c #0029B3",
"X.	c #0932AE",
"Y.	c #153AB5",
"Z.	c #1E43BB",
"`.	c #284AC3",
" +	c #3052C8",
".+	c #3958CE",
"++	c #3F5ED3",
"@+	c #4663D9",
"#+	c #4A67DD",
"$+	c #D1D8F7",
"%+	c #DAE0F9",
"&+	c #546FDF",
"*+	c #516DDC",
"=+	c #4E69D7",
"-+	c #4765D0",
";+	c #425FCA",
">+	c #3858C3",
",+	c #2F50BC",
"'+	c #2448B4",
")+	c #193EAB",
"!+	c #0A32A8",
"~+	c #002AAB",
"{+	c #0A33AE",
"]+	c #163CB5",
"^+	c #2044BD",
"/+	c #3354C9",
"(+	c #3B5ACF",
"_+	c #425FD5",
":+	c #4865DA",
"<+	c #4E69DF",
"[+	c #C5CEF6",
"}+	c #C9D1F7",
"|+	c #5873E3",
"1+	c #556FDD",
"2+	c #516CD8",
"3+	c #4B67D2",
"4+	c #4561CB",
"5+	c #3C5AC4",
"6+	c #3253BD",
"7+	c #264AB4",
"8+	c #1A3FAC",
"9+	c #0C34A5",
"0+	c #0B33AE",
"a+	c #173DB5",
"b+	c #2145BC",
"c+	c #2B4EC3",
"d+	c #3354CA",
"e+	c #3C5AD0",
"f+	c #4361D6",
"g+	c #4A66DB",
"h+	c #4F6ADF",
"i+	c #C6CFF6",
"j+	c #CBD3F8",
"k+	c #5A73E3",
"l+	c #5771DE",
"m+	c #546ED8",
"n+	c #4D69D3",
"o+	c #4662CB",
"p+	c #3D5CC4",
"q+	c #3455BC",
"r+	c #284BB4",
"s+	c #1B40AB",
"t+	c #0E34A4",
"u+	c #0029B2",
"v+	c #2B4DC3",
"w+	c #3454C9",
"x+	c #3C5BCF",
"y+	c #4361D5",
"z+	c #4A67D9",
"A+	c #506ADF",
"B+	c #C7D0F6",
"C+	c #CBD3F7",
"D+	c #5B75E2",
"E+	c #5872DD",
"F+	c #4D69D1",
"G+	c #4763CA",
"H+	c #3E5CC2",
"I+	c #3354BC",
"J+	c #274AB3",
"K+	c #0C35A7",
"L+	c #002AB7",
"M+	c #0932AC",
"N+	c #153BB3",
"O+	c #1F44BA",
"P+	c #294BC1",
"Q+	c #3253C7",
"R+	c #3B5ACD",
"S+	c #4260D2",
"T+	c #4A65D8",
"U+	c #4F6ADC",
"V+	c #C7D0F4",
"W+	c #CBD3F6",
"X+	c #5A74DF",
"Y+	c #5771DB",
"Z+	c #536DD5",
"`+	c #4C69CF",
" @	c #4663C8",
".@	c #3B5BC1",
"+@	c #3252BA",
"@@	c #2649B1",
"#@	c #1A3FA8",
"$@	c #0A31A7",
"%@	c #0029BD",
"&@	c #0830AA",
"*@	c #1339B1",
"=@	c #1D41B8",
"-@	c #2649BE",
";@	c #3051C5",
">@	c #3858CB",
",@	c #405DD0",
"'@	c #4764D5",
")@	c #C6CFF4",
"!@	c #CAD2F4",
"~@	c #546ED6",
"{@	c #506CD3",
"]@	c #4A66CC",
"^@	c #4260C6",
"/@	c #3859BE",
"(@	c #2E50B6",
"_@	c #2346AE",
":@	c #163DA5",
"<@	c #082EA7",
"[@	c #032CA8",
"}@	c #0F36AE",
"|@	c #193EB5",
"1@	c #2346BB",
"2@	c #2C4EC2",
"3@	c #3554C7",
"4@	c #3C5ACB",
"5@	c #C5CEF2",
"6@	c #C8D1F3",
"7@	c #4C68CC",
"8@	c #4562C7",
"9@	c #3E5CC1",
"0@	c #3555BA",
"a@	c #2A4CB2",
"b@	c #1E43AA",
"c@	c #1238A2",
"d@	c #0932AA",
"e@	c #153BB1",
"f@	c #1E43B7",
"g@	c #274ABD",
"h@	c #3050C2",
"i@	c #3757C6",
"j@	c #D4DBF4",
"k@	c #D7DDF5",
"l@	c #3F5EC2",
"m@	c #3857BC",
"n@	c #2E50B5",
"o@	c #2448AD",
"p@	c #193EA6",
"q@	c #0A32A4",
"r@	c #042DAD",
"s@	c #0E36AD",
"t@	c #183DB3",
"u@	c #2145B8",
"v@	c #294CBD",
"w@	c #3151C1",
"x@	c #4E6ACD",
"y@	c #FCFDFE",
"z@	c #FDFDFE",
"A@	c #5B75CE",
"B@	c #3052B7",
"C@	c #274AAF",
"D@	c #1D42A8",
"E@	c #1037A3",
"F@	c #4664C6",
"G@	c #7A8ED7",
"H@	c #7B90D7",
"I@	c #7C91D6",
"J@	c #4E6BC7",
"K@	c #1F42A9",
"L@	c #133AA2",
"M@	c #1137AB",
"N@	c #0930A1",
"O@	c #032CAE",
"              . + @ # $ % & * =                 ",
"            - ; > , ' ) ! ! ~ { ] ^             ",
"        / ( _ : < [ } | 1 1 2 3 4 5 6 7         ",
"      8 9 0 a b c d e f g g h i j k l m n       ",
"    / 9 o p q r s t u v w x y z A B C D E n     ",
"    F G H I J K L M N O O P Q R S T U V W X     ",
"  Y Z `  ...+.@.#.$.%.&.*.=.-.;.>.,.'.).!.~.{.  ",
"].^./.(._.:.<.[.}.|.1.2.3.4.5.6.7.8.9.0.a.b.c.  ",
"d.e.f.g.h.i.j.k.l.m.n.o.p.q.r.s.t.u.v.w.x.y.z.A.",
"B.G C.D.E.F.G.H.I.J.K.O O L.M.N.O.P.Q.R.S.T.U.V.",
"W.X.Y.Z.`. +.+++@+#+$+O O %+&+*+=+-+;+>+,+'+)+!+",
"~+{+]+^+i./+(+_+:+<+[+O O }+|+1+2+3+4+5+6+7+8+9+",
"9 0+a+b+c+d+e+f+g+h+i+O O j+k+l+m+n+o+p+q+r+s+t+",
"u+0+]+b+v+w+x+y+z+A+B+O O C+D+E+m+F+G+H+I+J+s+K+",
"L+M+N+O+P+Q+R+S+T+U+V+O O W+X+Y+Z+`+ @.@+@@@#@$@",
"%@&@*@=@-@;@>@,@'@N.)@O O !@Y+~@{@]@^@/@(@_@:@<@",
"  [@}@|@1@2@3@4@t.O.5@O O 6@Z+{@7@8@9@0@a@b@c@  ",
"  n d@e@f@g@h@i@u.P.j@O O k@`+]@8@l@m@n@o@p@q@  ",
"    r@s@t@u@v@w@v.x@y@O O z@A@^@9@m@B@C@D@E@    ",
"    7 m D V ).0.w.F@f G@H@I@J@/@0@n@C@K@L@      ",
"      n E M@!.a.x.S.,+6+q+I++@(@a@o@D@L@N@      ",
"        n X ~.b.y.T.'+7+r+J+@@_@b@p@E@          ",
"            O@c.z.U.)+8+s+s+#@:@c@q@            ",
"                A.V.!+9+t+K+$@<@                "};
